<svg width="64" height="64" viewBox="0 0 64 64" fill="none" xmlns="http://www.w3.org/2000/svg">
<path d="M31.9998 1.78027C15.3502 1.78027 1.78027 15.3502 1.78027 31.9998C1.78027 48.6494 15.3502 62.2194 31.9998 62.2194C48.6494 62.2194 62.2194 48.6494 62.2194 31.9998C62.2194 15.3502 48.6494 1.78027 31.9998 1.78027Z" fill="black"/>
<path d="M42.9713 28.7756L37.8225 33.5877L39.1698 40.517C39.218 40.8538 39.1217 41.1907 38.833 41.3831C38.5443 41.5756 38.2074 41.6238 37.9187 41.4313L31.7593 38.0147L25.5999 41.4313C25.4556 41.4794 25.3112 41.5275 25.1668 41.5275C24.9744 41.5275 24.83 41.4794 24.6375 41.3831C24.3488 41.1907 24.2525 40.8538 24.3007 40.517L25.648 33.5877L20.4992 28.7756C20.2586 28.535 20.1623 28.1982 20.2586 27.8613C20.3548 27.5245 20.6435 27.332 20.9804 27.2839L27.9578 26.4177L30.9413 20.0177C31.0856 19.729 31.3744 19.5365 31.7112 19.5365C32.048 19.5365 32.3368 19.729 32.4811 20.0177L35.4646 26.4177L42.442 27.2839C42.7789 27.332 43.0676 27.5726 43.1638 27.8613C43.3082 28.1982 43.2119 28.535 42.9713 28.7756Z" fill="#F5B400"/>
<path d="M7.69907 31.2298C7.69907 31.4223 7.65095 31.5186 7.55471 31.5186H7.50659H7.45847H7.41035H7.36223C7.36223 31.5186 7.36223 31.5186 7.31411 31.5186C7.16975 31.5186 7.07351 31.5667 7.07351 31.711C7.07351 31.8554 7.16975 31.9516 7.36223 31.9516H7.41035C7.41035 31.9516 7.41035 31.9516 7.45847 31.9516C7.74719 31.9516 8.03592 31.9035 8.32464 31.9035C8.42088 31.9035 8.51712 31.9035 8.61336 31.9035C8.7096 31.9035 8.80584 31.9035 8.90208 31.9035C8.99832 31.9035 9.04644 31.9035 9.09456 31.9035C9.14268 31.9035 9.19081 31.9035 9.23893 31.9035C9.28705 31.9035 9.33516 31.9035 9.38328 31.9035C9.4314 31.9035 9.47953 31.9035 9.52765 31.9035C9.52765 31.9035 9.52765 31.9035 9.57577 31.9035C9.57577 31.9035 9.57577 31.9035 9.62389 31.9035H9.67201H9.72013C9.91261 31.9035 10.0088 31.8073 10.0088 31.6148V31.5667C10.0088 31.5186 10.0088 31.5186 10.0088 31.4704C10.0088 31.4704 10.0088 31.4704 10.0088 31.4223C10.0088 31.3742 10.0088 31.3261 10.0088 31.3261V31.278V31.2298C10.0088 31.1817 10.0088 31.1817 10.0088 31.1336V31.0855V31.0373V30.9892V30.9411C10.0088 30.893 10.0088 30.893 10.0088 30.8449V30.7486C10.0088 30.5561 9.91261 30.4599 9.76825 30.4599C9.62389 30.4599 9.52765 30.5561 9.52765 30.7486V30.8449C9.52765 30.893 9.52765 30.9411 9.52765 30.9892C9.52765 30.9892 9.52765 30.9892 9.52765 31.0373C9.52765 31.0373 9.52765 31.0373 9.52765 31.0855C9.52765 31.1336 9.52765 31.1336 9.52765 31.1817V31.2298C9.52765 31.3742 9.47952 31.4223 9.4314 31.4704C9.38328 31.5186 9.28704 31.5186 9.09456 31.5186H8.469C8.37276 31.5186 8.27652 31.5186 8.27652 31.5186C8.2284 31.5186 8.2284 31.4223 8.2284 31.3261V31.2298C8.2284 31.1817 8.2284 31.1336 8.2284 31.0855C8.2284 31.0373 8.2284 30.9892 8.2284 30.9892V30.893V30.6043C8.2284 30.508 8.2284 30.4599 8.2284 30.4599C8.2284 30.4599 8.27652 30.4118 8.32464 30.4118H8.51712C8.66148 30.4118 8.7096 30.4599 8.7096 30.5561C8.7096 30.5561 8.7096 30.5561 8.7096 30.6043V30.6524V30.7005C8.7096 30.7486 8.7096 30.7486 8.7096 30.7967C8.7096 30.8449 8.7096 30.8449 8.7096 30.8449C8.7096 31.0373 8.80584 31.1336 8.9502 31.1336C9.09456 31.1336 9.1908 31.0373 9.1908 30.893C9.1908 30.8449 9.1908 30.7967 9.1908 30.7005L9.14268 30.5561C9.14268 30.4599 9.14268 30.4118 9.14268 30.3637C9.14268 30.3155 9.14268 30.2674 9.14268 30.2193C9.14268 30.1231 9.14268 29.9787 9.1908 29.8343C9.1908 29.7381 9.19081 29.69 9.23893 29.6419C9.23893 29.5937 9.23893 29.5456 9.23893 29.5456C9.23893 29.3531 9.14268 29.2569 8.99832 29.2569C8.85396 29.2569 8.75772 29.3531 8.75772 29.4975C8.75772 29.5456 8.75772 29.6419 8.75772 29.69C8.75772 29.69 8.75772 29.7381 8.75772 29.7862C8.75772 29.8343 8.75772 29.8343 8.75772 29.8343C8.75772 29.9306 8.66148 29.9787 8.56524 29.9787H8.37276C8.32464 29.9787 8.32464 29.9787 8.27652 29.9787C8.27652 29.9787 8.27652 29.9306 8.27652 29.8343V29.7862V29.7381V29.69V29.3531C8.27652 29.2569 8.32464 29.1607 8.42088 29.1607C8.469 29.1607 8.61336 29.1607 8.80584 29.1607C9.14268 29.1607 9.33516 29.1607 9.4314 29.2088C9.52764 29.2569 9.52765 29.3531 9.52765 29.5937V29.8343C9.52765 30.0268 9.62389 30.1712 9.76825 30.1712C9.91261 30.1712 10.0088 30.0749 10.0088 29.9306C10.0088 29.8825 10.0088 29.8825 10.0088 29.8343C10.0088 29.7862 10.0088 29.7381 10.0088 29.69C10.0088 29.69 10.0088 29.6419 10.0088 29.5937C10.0088 29.5456 10.0088 29.4975 10.0088 29.4494C10.0088 29.4013 10.0088 29.3531 10.0088 29.305C10.0088 29.2569 10.0088 29.2088 10.0088 29.1607C10.0088 29.1125 10.0088 29.0163 10.0088 29.0163C10.0088 28.9682 10.0088 28.9682 10.0088 28.9201C10.0088 28.7276 9.91261 28.6313 9.67201 28.6313H9.62389C9.62389 28.6313 9.57577 28.6313 9.52765 28.6313C9.38329 28.6313 9.28705 28.6313 9.28705 28.6313L8.13216 28.6795C8.08404 28.6795 8.03592 28.6795 7.98779 28.6795C7.93967 28.6795 7.89156 28.6795 7.79531 28.6795L7.41035 28.6313H7.36223H7.31411C7.12163 28.6313 7.02539 28.7276 7.02539 28.8719C7.02539 28.9201 7.02539 28.9682 7.07351 29.0163C7.12163 29.0644 7.16975 29.0644 7.21787 29.0644C7.26599 29.0644 7.31411 29.0644 7.36223 29.0644C7.41035 29.0644 7.41035 29.0644 7.45847 29.0644C7.55471 29.0644 7.60283 29.1607 7.60283 29.3531V31.2298H7.69907ZM10.9713 28.8238C10.7307 29.0163 10.6344 29.2569 10.6344 29.5456C10.6344 29.7381 10.6825 29.8825 10.7788 30.0268C10.875 30.1712 10.9713 30.2674 11.1156 30.3155C11.2119 30.3637 11.26 30.3637 11.4043 30.4118C11.5006 30.4599 11.6449 30.4599 11.7893 30.508L12.078 30.5561C12.2224 30.6043 12.3667 30.6524 12.463 30.7486C12.5592 30.8449 12.6073 30.9411 12.6073 31.0373C12.6073 31.2298 12.5592 31.3742 12.4149 31.4704C12.2705 31.5667 12.1261 31.6148 11.8855 31.6148C11.6449 31.6148 11.4525 31.5667 11.3081 31.4223C11.1637 31.278 11.1156 31.1336 11.1156 30.893V30.8449V30.7967V30.7005C11.1156 30.508 11.0194 30.4118 10.8269 30.4118C10.6344 30.4118 10.5863 30.508 10.5863 30.7005C10.5863 30.7486 10.5863 30.7967 10.5863 30.8449C10.5863 30.893 10.5863 30.9411 10.5863 30.9892C10.5863 31.0373 10.5863 31.1336 10.5863 31.1336C10.5863 31.1817 10.5863 31.2298 10.5863 31.2298C10.5863 31.278 10.5863 31.3261 10.5863 31.4704V31.711V31.7592C10.5863 31.9516 10.6825 32.0479 10.8269 32.0479C10.9713 32.0479 11.0675 31.9516 11.0675 31.8073C11.3081 31.9516 11.5487 32.0479 11.8855 32.0479C12.2224 32.0479 12.5111 31.9516 12.7517 31.7592C12.9923 31.5667 13.0885 31.278 13.0885 30.9892C13.0885 30.8449 13.0404 30.7005 12.9923 30.6043C12.9442 30.508 12.8479 30.3637 12.7517 30.3155C12.7036 30.2674 12.5592 30.2193 12.4149 30.1712C12.2705 30.1231 12.1261 30.0749 11.9337 30.0749C11.8374 30.0749 11.6931 30.0268 11.6449 30.0268C11.5487 30.0268 11.5006 29.9787 11.4525 29.9787C11.3081 29.8825 11.2119 29.7862 11.2119 29.5937C11.2119 29.4494 11.26 29.305 11.3562 29.2569C11.4525 29.1607 11.5968 29.1125 11.7893 29.1125C11.9818 29.1125 12.1261 29.1607 12.2705 29.2569C12.4149 29.3531 12.463 29.4975 12.463 29.6419V29.69V29.7381V29.8825V29.9306C12.463 30.1231 12.5592 30.1712 12.7036 30.1712C12.8961 30.1712 12.9442 30.0749 12.9442 29.8825V29.8343C12.9442 29.8343 12.9442 29.8343 12.9442 29.7862V29.5937V29.5456V29.4975C12.9442 29.4975 12.9442 29.4975 12.9442 29.4494C12.9442 29.3531 12.9442 29.2569 12.9442 29.2088C12.9442 29.1125 12.9442 29.0644 12.9442 29.0644V28.8719C12.9442 28.6795 12.8479 28.5832 12.7036 28.5832C12.6073 28.5832 12.5111 28.6313 12.5111 28.7276C12.3186 28.5832 12.078 28.5351 11.8374 28.5351C11.4525 28.5351 11.2119 28.6313 10.9713 28.8238ZM15.1096 29.6419V29.305C15.1096 29.2088 15.1577 29.1607 15.1577 29.1125C15.2058 29.0644 15.254 29.0644 15.3502 29.0644H15.4946C15.687 29.0644 15.7833 29.1607 15.7833 29.305C15.7833 29.3531 15.7833 29.3531 15.7833 29.4013C15.7833 29.4494 15.7833 29.4975 15.7833 29.5456C15.7833 29.6419 15.7833 29.7381 15.7833 29.7862C15.7833 29.9787 15.8795 30.0749 16.0239 30.0749C16.2164 30.0749 16.3126 29.9787 16.3126 29.8343C16.3126 29.8343 16.3126 29.7862 16.3126 29.7381C16.3126 29.69 16.3126 29.6419 16.3126 29.5937C16.3126 29.5456 16.3126 29.4975 16.3126 29.4494V29.3531C16.3126 29.2569 16.3126 29.1607 16.3126 29.0644C16.3126 28.9682 16.3126 28.9201 16.3126 28.8719C16.3126 28.6795 16.2164 28.5832 15.9758 28.5832C15.9276 28.5832 15.8795 28.5832 15.8314 28.5832C15.7833 28.5832 15.7352 28.5832 15.687 28.5832C15.5427 28.5832 15.4464 28.5832 15.3983 28.5832C15.3502 28.5832 15.254 28.5832 15.2058 28.5832C15.1577 28.5832 15.1096 28.5832 15.0615 28.5832C15.0134 28.5832 14.9652 28.5832 14.9652 28.5832C14.9171 28.5832 14.9171 28.5832 14.869 28.5832C14.7728 28.5832 14.6765 28.5832 14.5803 28.5832C14.484 28.5832 14.3878 28.5832 14.2916 28.5832C14.1953 28.5832 14.1472 28.5832 14.0991 28.5832C14.051 28.5832 14.0028 28.5832 13.9547 28.5832H13.9066C13.8104 28.5832 13.7622 28.5832 13.7141 28.5832C13.666 28.5832 13.6179 28.5832 13.6179 28.5832C13.4254 28.5832 13.3773 28.6795 13.3773 28.8719C13.3773 28.9201 13.3773 28.9201 13.3773 28.9201C13.3773 28.9201 13.3773 28.9201 13.3773 28.9682V29.1125C13.3773 29.1607 13.3773 29.2088 13.3773 29.2569C13.3773 29.305 13.3773 29.3531 13.3773 29.3531C13.3773 29.4013 13.3773 29.4975 13.3773 29.6419V29.69V29.7381C13.3773 29.7381 13.3773 29.7862 13.3773 29.8343V29.8825C13.3773 30.0749 13.4735 30.1712 13.6179 30.1712C13.8104 30.1712 13.9066 30.0268 13.9066 29.7862V29.7381V29.69V29.5456V29.4975V29.4013C13.9066 29.2088 14.0028 29.1125 14.1472 29.1125H14.2916C14.484 29.1125 14.5803 29.2088 14.5803 29.4013V30.1712V30.5561V30.9892V31.3261C14.5803 31.5186 14.5322 31.6148 14.4359 31.6148C14.4359 31.6148 14.4359 31.6148 14.3878 31.6148H14.3397C14.3397 31.6148 14.2916 31.6148 14.2434 31.6148C14.1953 31.6148 14.1953 31.6148 14.1953 31.6148C14.051 31.6148 13.9547 31.6629 13.9547 31.8073C13.9547 31.9516 14.051 32.0479 14.2434 32.0479H14.2916C14.2916 32.0479 14.2916 32.0479 14.3397 32.0479L14.5803 31.9998C14.6284 31.9998 14.6765 31.9998 14.7246 31.9998C14.7728 31.9998 14.8209 31.9998 14.869 31.9998C14.9171 31.9998 14.9652 31.9998 15.0134 31.9998C15.0615 31.9998 15.1096 31.9998 15.1577 31.9998L15.3983 32.0479H15.4464H15.4946C15.687 32.0479 15.7833 31.9516 15.7833 31.8073C15.7833 31.7592 15.7833 31.711 15.7352 31.6629C15.687 31.6148 15.6389 31.6148 15.5908 31.6148C15.5908 31.6148 15.5908 31.6148 15.5427 31.6148C15.4946 31.6148 15.4946 31.6148 15.4464 31.6148H15.3983H15.3502C15.254 31.6148 15.2058 31.5186 15.2058 31.3261L15.1096 29.6419ZM16.9863 31.9035C17.0344 31.8554 17.0825 31.7592 17.0825 31.6629C17.0825 31.5667 17.0344 31.4704 16.9863 31.4223C16.9382 31.3742 16.8419 31.3261 16.6976 31.3261C16.6013 31.3261 16.5051 31.3742 16.4088 31.4223C16.3607 31.4704 16.3126 31.5667 16.3126 31.6629C16.3126 31.7592 16.3607 31.8554 16.4088 31.9035C16.457 31.9516 16.5532 31.9998 16.6976 31.9998C16.7938 31.9998 16.8901 31.9516 16.9863 31.9035Z" fill="#F5B400"/>
<path d="M46.4843 30.5081C46.4843 30.7006 46.4843 30.845 46.4843 30.9412C46.4843 31.0374 46.4843 31.1337 46.4362 31.1818C46.4362 31.2299 46.3881 31.278 46.2919 31.278C46.2919 31.278 46.2918 31.278 46.2437 31.278C46.2437 31.278 46.2437 31.278 46.1956 31.278H46.1475C46.1475 31.278 46.0994 31.278 46.0513 31.278C46.0031 31.278 46.0031 31.278 45.955 31.278C45.7625 31.278 45.6182 31.3743 45.6182 31.5186C45.6182 31.663 45.7144 31.7592 45.9069 31.7592C45.955 31.7592 45.955 31.7592 46.0031 31.7592C46.0512 31.7592 46.0994 31.7592 46.1475 31.7592C46.34 31.7111 46.5325 31.7111 46.6287 31.7111C46.6768 31.7111 46.7731 31.7111 46.8693 31.7111C46.9655 31.7111 47.0618 31.7111 47.2061 31.7592C47.2543 31.7592 47.2543 31.7592 47.3024 31.7592C47.3505 31.7592 47.3505 31.7592 47.3986 31.7592C47.5911 31.7592 47.6873 31.663 47.6873 31.5186C47.6873 31.3743 47.5911 31.278 47.3986 31.278H47.3505C47.3024 31.278 47.3024 31.278 47.2543 31.278C47.2061 31.278 47.2061 31.278 47.158 31.278C47.1099 31.278 47.1099 31.278 47.1099 31.278C47.0137 31.278 46.9655 31.1818 46.9655 31.0374V30.9412C46.9655 30.8931 46.9655 30.845 46.9655 30.845C46.9655 30.7968 46.9655 30.7968 46.9655 30.7487C46.9655 30.7006 46.9655 30.7006 46.9655 30.6525C46.9655 30.5562 46.9655 30.5081 46.9655 30.4119V30.2194V29.6901C46.9655 29.5457 46.9655 29.4014 46.9655 29.257C46.9655 29.1126 46.9655 28.9201 46.9655 28.7758C46.9655 28.7277 46.9655 28.7277 46.9655 28.6795V28.6314C46.9655 28.5833 46.9655 28.5352 46.9174 28.4871C46.9174 28.4389 46.8693 28.4389 46.8212 28.3908C46.7731 28.3908 46.7249 28.3427 46.6768 28.3427C46.6287 28.3427 46.5806 28.3427 46.4843 28.3427C46.4362 28.3427 46.4362 28.3427 46.3881 28.3427C46.34 28.3427 46.2918 28.3427 46.2437 28.3427H46.1956C46.1475 28.3427 46.1475 28.3427 46.0994 28.3427C46.0994 28.3427 46.0994 28.3427 46.0513 28.3427C46.0031 28.3427 46.0031 28.3427 45.955 28.3427C45.9069 28.3427 45.9069 28.3427 45.8588 28.3427C45.6663 28.3427 45.6182 28.4389 45.6182 28.5833C45.6182 28.7277 45.7144 28.8239 45.9069 28.8239H45.955C46.0031 28.8239 46.0031 28.8239 46.0513 28.8239C46.0513 28.8239 46.0994 28.8239 46.1475 28.8239C46.1956 28.8239 46.1956 28.8239 46.1956 28.8239C46.2437 28.8239 46.2919 28.872 46.2919 28.9201C46.2919 28.9683 46.34 29.0645 46.34 29.1607L46.4843 30.5081ZM48.9866 31.278C48.8903 31.2299 48.8422 31.1818 48.7941 31.1337C48.8903 31.0856 48.8903 30.9893 48.8903 30.8931C48.8903 30.7968 48.8422 30.7487 48.7941 30.7006C48.746 30.6525 48.6497 30.6044 48.5535 30.6044C48.4573 30.6044 48.361 30.6525 48.2648 30.7006C48.1685 30.7487 48.1685 30.845 48.1685 30.9893C48.1685 31.2299 48.2648 31.3743 48.5054 31.5186C48.6979 31.663 48.9385 31.7111 49.2753 31.7111C49.7565 31.7111 50.0934 31.5186 50.3821 31.1818C50.6227 30.845 50.767 30.4119 50.767 29.8344C50.767 29.3532 50.6708 28.9683 50.4302 28.6795C50.1896 28.3908 49.8528 28.2465 49.4678 28.2465C49.0828 28.2465 48.7941 28.3427 48.5535 28.5833C48.3129 28.8239 48.2167 29.1126 48.2167 29.4495C48.2167 29.7863 48.3129 30.075 48.5535 30.2675C48.746 30.46 49.0347 30.6044 49.4197 30.6044C49.8046 30.6044 50.0452 30.5081 50.2377 30.3156C50.1896 30.6044 50.0934 30.845 49.949 31.0374C49.8046 31.2299 49.6122 31.278 49.3715 31.278C49.1791 31.3262 49.0828 31.3262 48.9866 31.278ZM49.9009 28.9683C50.0452 29.1126 50.0934 29.257 50.0934 29.4976C50.0934 29.6901 50.0452 29.8826 49.9009 29.9788C49.7565 30.1232 49.6122 30.1713 49.3715 30.1713C49.1791 30.1713 48.9866 30.1232 48.8903 29.9788C48.7941 29.8344 48.6979 29.6901 48.6979 29.4976C48.6979 29.257 48.746 29.1126 48.8903 28.9683C49.0347 28.8239 49.1791 28.7758 49.4197 28.7758C49.6122 28.7758 49.8046 28.8239 49.9009 28.9683ZM52.1144 31.278C52.0182 31.2299 51.97 31.1818 51.9219 31.1337C52.0182 31.0856 52.0182 30.9893 52.0182 30.8931C52.0182 30.7968 51.97 30.7487 51.9219 30.7006C51.8738 30.6525 51.7776 30.6044 51.6813 30.6044C51.5851 30.6044 51.4888 30.6525 51.3926 30.7006C51.2964 30.7487 51.2964 30.845 51.2964 30.9893C51.2964 31.2299 51.3926 31.3743 51.6332 31.5186C51.8257 31.663 52.0663 31.7111 52.4031 31.7111C52.8843 31.7111 53.2212 31.5186 53.5099 31.1818C53.7505 30.845 53.8949 30.4119 53.8949 29.8344C53.8949 29.3532 53.7986 28.9683 53.558 28.6795C53.3174 28.3908 52.9806 28.2465 52.5956 28.2465C52.2106 28.2465 51.9219 28.3427 51.6813 28.5833C51.4407 28.8239 51.3445 29.1126 51.3445 29.4495C51.3445 29.7863 51.4407 30.075 51.6813 30.2675C51.8738 30.46 52.1625 30.6044 52.5475 30.6044C52.9325 30.6044 53.1731 30.5081 53.3655 30.3156C53.3174 30.6044 53.2212 30.845 53.0768 31.0374C52.9325 31.2299 52.74 31.278 52.4994 31.278C52.3069 31.3262 52.2106 31.3262 52.1144 31.278ZM53.0287 28.9683C53.1731 29.1126 53.2212 29.257 53.2212 29.4976C53.2212 29.6901 53.1731 29.8826 53.0287 29.9788C52.8843 30.1232 52.74 30.1713 52.4994 30.1713C52.3069 30.1713 52.1144 30.1232 52.0182 29.9788C51.9219 29.8344 51.8257 29.6901 51.8257 29.4976C51.8257 29.257 51.8738 29.1126 52.0182 28.9683C52.1625 28.8239 52.3069 28.7758 52.5475 28.7758C52.74 28.7758 52.9325 28.8239 53.0287 28.9683ZM56.2528 28.9201C56.2046 28.9201 56.2046 28.9683 56.1565 29.0164C56.1565 29.0645 56.1565 29.1126 56.1565 29.1607C56.1565 29.257 56.2046 29.3051 56.2528 29.4013C56.3009 29.4495 56.3971 29.4976 56.4934 29.4976C56.5896 29.4976 56.6858 29.4495 56.7821 29.4013C56.8783 29.3051 56.8783 29.257 56.8783 29.1126C56.8783 28.9201 56.7821 28.7277 56.5415 28.5833C56.349 28.4389 56.1084 28.3908 55.8197 28.3908C55.3385 28.3908 55.0016 28.5833 54.7129 28.9201C54.4242 29.257 54.3279 29.7382 54.3279 30.3156C54.3279 30.7968 54.4723 31.1818 54.7129 31.4705C54.9535 31.7592 55.2903 31.9036 55.7234 31.9036C56.1084 31.9036 56.4452 31.8074 56.6858 31.5668C56.9264 31.3262 57.0708 31.0374 57.0708 30.7006C57.0708 30.5562 57.0227 30.3638 56.9746 30.2675C56.9264 30.1232 56.8302 30.0269 56.734 29.8826C56.4934 29.6901 56.2046 29.5457 55.8197 29.5457C55.6272 29.5457 55.4828 29.5457 55.3385 29.5938C55.1941 29.642 55.0979 29.7382 54.9535 29.8344C54.9535 29.6901 55.0016 29.5938 55.0497 29.4495C55.0979 29.3532 55.146 29.257 55.1941 29.1607C55.3385 28.9201 55.5791 28.8239 55.8197 28.8239C56.0122 28.7277 56.1565 28.7758 56.2528 28.9201ZM56.2528 30.075C56.3971 30.2194 56.4452 30.3638 56.4452 30.6044C56.4452 30.845 56.3971 30.9893 56.2528 31.1337C56.1084 31.278 55.9159 31.3262 55.7234 31.3262C55.4828 31.3262 55.3385 31.278 55.1941 31.1337C55.0497 30.9893 55.0016 30.7968 55.0016 30.6044C55.0016 30.4119 55.0497 30.2194 55.1941 30.075C55.3385 29.9307 55.4828 29.8826 55.7234 29.8826C55.964 29.8826 56.1565 29.9307 56.2528 30.075Z" fill="#F5B400"/>
<path d="M19.0072 42.9713C19.1997 42.5863 19.296 42.2014 19.2479 41.7683C19.1997 41.3352 19.0554 40.9021 18.8629 40.4209C18.7185 40.0841 18.6223 39.8435 18.526 39.6991L18.1411 38.9773C18.0448 38.833 17.9486 38.5924 17.8524 38.3036C17.708 37.9187 17.6118 37.63 17.5155 37.4375L17.2749 36.6194C17.2749 36.6194 17.2749 36.6194 17.2749 36.5713V36.5232C17.1787 36.2826 17.0343 36.1382 16.8418 36.042C16.6494 35.9457 16.4088 35.9939 16.1682 36.0901C15.9757 36.1863 15.8313 36.2826 15.7351 36.4751C15.6388 36.6676 15.6388 36.8119 15.6869 36.9563C15.7351 37.0044 15.7832 37.1006 15.8313 37.1969C15.8794 37.2931 15.9276 37.3894 15.9757 37.4375C16.0719 37.63 15.8313 37.8224 15.3501 38.0149L12.3185 39.266C11.8373 39.4585 11.5486 39.4585 11.4524 39.266C11.4524 39.2179 11.4042 39.1217 11.4042 38.9773C11.4042 38.833 11.3561 38.7367 11.3561 38.6886C11.308 38.5442 11.1636 38.3999 10.9712 38.3518C10.7787 38.3036 10.5862 38.3036 10.3937 38.3999C10.1531 38.4961 10.0088 38.6405 9.91251 38.833C9.81627 39.0254 9.81627 39.266 9.91251 39.5067L9.96064 39.6029C10.0088 39.7473 10.1531 39.9878 10.2975 40.2766C10.49 40.6134 10.5862 40.854 10.6824 40.9984C10.7787 41.239 10.8749 41.4796 10.923 41.6721L11.1636 42.4901C11.2599 42.827 11.4042 43.1157 11.5005 43.4044C11.8854 44.3187 12.3185 44.8961 12.9441 45.2811C13.5215 45.6179 14.1471 45.666 14.8689 45.3773C15.1576 45.233 15.4463 45.0405 15.6869 44.7999C15.9757 44.463 16.12 43.9818 16.12 43.3082V42.9713C16.6975 43.7894 17.3712 44.03 18.1892 43.6931C18.526 43.5969 18.8148 43.3563 19.0072 42.9713ZM16.4088 39.8435C16.6494 39.7473 16.8418 39.7472 16.9862 39.8916C17.0824 39.9878 17.1787 40.1322 17.2749 40.4209C17.5636 41.1909 17.5155 41.6721 16.9862 41.8645C16.7456 41.9608 16.505 41.9127 16.3125 41.7683C16.0719 41.6239 15.8794 41.3352 15.7351 40.9503L15.5907 40.6134C15.5426 40.4691 15.4945 40.3728 15.5426 40.3247C15.5426 40.2285 15.6388 40.1803 15.7832 40.1322L16.4088 39.8435ZM13.3291 43.3082C13.0885 43.1638 12.896 42.9232 12.7516 42.6345C12.5591 42.2014 12.511 41.9127 12.5591 41.7202C12.6072 41.5277 12.7516 41.3352 13.0403 41.239L13.8584 40.9021C14.0027 40.854 14.099 40.854 14.1471 40.854C14.1952 40.9021 14.2915 40.9984 14.3396 41.1427L14.4839 41.4796C14.6764 41.9127 14.7245 42.2976 14.6283 42.6826C14.5802 43.0194 14.3877 43.26 14.0509 43.4044C13.8103 43.4525 13.5697 43.4525 13.3291 43.3082ZM19.7291 49.66C19.6809 49.8044 19.6328 49.9969 19.4885 50.1412C19.3922 50.2856 19.2479 50.2856 19.1516 50.1894C19.1035 50.1412 19.1035 50.1412 19.0072 50.045C18.9591 49.9969 18.911 49.9488 18.8629 49.9006C18.6223 49.7082 18.3817 49.7563 18.0448 50.1412C17.9005 50.3337 17.8042 50.5262 17.8042 50.7187C17.8042 50.9112 17.9005 51.1036 18.0448 51.248C18.1411 51.2961 18.3336 51.4405 18.6704 51.6811C18.7667 51.7292 18.911 51.8736 19.1516 52.066C19.3441 52.2585 19.5366 52.4029 19.6328 52.5472C19.6809 52.5954 19.7772 52.6916 19.9215 52.8841C20.0178 53.0284 20.1621 53.1247 20.2103 53.2209C20.4027 53.3653 20.5952 53.4615 20.8358 53.4615C21.0764 53.4615 21.2689 53.3653 21.4133 53.1728C21.7501 52.7878 21.7501 52.451 21.4133 52.1623L21.317 52.066C21.2208 52.0179 21.1245 51.9698 21.1245 51.9217C21.0283 51.8254 21.0283 51.5848 21.2208 51.1999L23.4343 46.436C23.5787 46.0991 23.6268 45.8104 23.5787 45.6179C23.4824 45.4254 23.2418 45.1367 22.7125 44.7036C22.2794 44.3187 21.9426 44.0781 21.7501 44.03C21.4614 43.9818 21.1245 44.0781 20.5952 44.3668L16.3125 46.7728C16.0719 46.9172 15.9276 46.9653 15.8794 47.0134C15.6869 47.0615 15.5426 47.0615 15.4463 46.9653C15.3982 46.9172 15.3501 46.8691 15.302 46.8209C15.2539 46.7247 15.1576 46.6766 15.1576 46.6766C14.8689 46.3879 14.4839 46.4841 14.1471 46.8691C14.0027 47.0615 13.9065 47.254 13.9065 47.4465C13.9065 47.639 14.0027 47.8315 14.1952 48.0239C14.2433 48.0721 14.4358 48.2164 14.8208 48.457C14.9651 48.5533 15.1576 48.6976 15.3982 48.9382C15.6388 49.1307 15.7832 49.2751 15.8794 49.4194C16.12 49.7082 16.3125 49.9006 16.3606 49.9488C16.505 50.0931 16.6975 50.1412 16.89 50.1412C17.0824 50.0931 17.2749 49.9969 17.4674 49.8044C17.7561 49.4676 17.8042 49.1788 17.6118 48.9863C17.5636 48.9382 17.5155 48.9382 17.4674 48.8901C17.4193 48.842 17.3712 48.7939 17.323 48.7939C17.2268 48.6976 17.2268 48.6014 17.2749 48.5051C17.6118 48.1202 17.9967 48.0721 18.2854 48.3608L19.4403 49.4194C19.7291 49.3713 19.7772 49.4675 19.7291 49.66ZM20.6433 47.9277C20.5471 48.0239 20.4509 47.9758 20.3065 47.8315L19.7772 47.3503C19.6328 47.2059 19.5847 47.1097 19.6328 47.0615L19.6809 47.0134L21.8945 45.6179L20.6915 47.7833C20.6433 47.8796 20.5952 47.9277 20.6433 47.9277ZM25.3591 47.5909C24.5892 48.2164 24.0118 49.1307 23.723 50.43C23.5306 51.248 23.4824 52.066 23.6268 52.7397C23.723 53.3172 24.0118 53.7984 24.4448 54.2315C24.8779 54.6645 25.4073 54.9533 25.9847 55.0976C26.6584 55.242 27.2839 55.1939 27.9576 54.9051V54.9533C27.8614 55.3382 28.102 55.5788 28.6313 55.7232C29.2088 55.8675 29.5456 55.6751 29.6418 55.1457C29.69 55.0014 29.7381 54.8089 29.7381 54.6645L29.8343 54.1833C29.8824 54.039 29.8824 53.8465 29.9306 53.7021C30.0268 53.3653 30.1712 53.2209 30.3636 53.2691L30.6524 53.3653C30.7967 53.4134 30.9411 53.3653 31.0854 53.2209C31.2298 53.0766 31.326 52.9322 31.3742 52.6916C31.4223 52.451 31.4223 52.2104 31.2779 52.0179C31.1817 51.8254 30.9892 51.7292 30.7486 51.633C30.6524 51.633 30.508 51.5848 30.2193 51.5367C29.8824 51.4886 29.6418 51.4405 29.3531 51.3924C29.2088 51.3442 28.9682 51.248 28.6313 51.1518C28.2945 51.0074 28.102 50.9593 27.9095 50.9112C27.6689 50.863 27.4283 50.863 27.2839 50.9593C27.0915 51.0555 26.9952 51.248 26.899 51.4405C26.8509 51.633 26.8509 51.8254 26.9471 51.9698C27.0433 52.1142 27.1396 52.2104 27.2839 52.2585C27.2839 52.2585 27.3802 52.2585 27.4764 52.3066C27.4764 52.3066 27.5245 52.3066 27.5727 52.3066C27.6208 52.3066 27.6208 52.3066 27.6208 52.3066C27.9095 52.3548 28.0057 52.5472 27.9095 52.8841C27.8614 53.1247 27.717 53.3172 27.4764 53.4615C27.2358 53.6059 26.9952 53.6059 26.6584 53.5578C26.1772 53.4615 25.8885 53.1728 25.696 52.6916C25.5035 52.2104 25.5516 51.633 25.696 50.9112C25.8885 50.045 26.1772 49.4194 26.5621 49.0345C26.9471 48.6495 27.3802 48.5051 27.8614 48.6014C28.2463 48.6976 28.4869 48.842 28.6313 49.0345C28.7757 49.2269 28.8238 49.5638 28.8238 50.045C28.8238 50.5262 29.0163 50.7668 29.4494 50.9112C29.7381 50.9593 29.9787 50.9593 30.1712 50.863C30.3636 50.7668 30.508 50.6224 30.5561 50.43C30.5561 50.3818 30.6042 50.2375 30.6524 49.9969C30.6524 49.9006 30.6524 49.8044 30.7005 49.66C30.7486 49.5157 30.7967 49.3232 30.9411 48.9863C31.0373 48.7457 31.0854 48.6014 31.0854 48.5533C31.1817 48.0721 31.0373 47.8315 30.5561 47.6871C30.1712 47.5909 29.8824 47.7833 29.69 48.2164C29.305 47.5427 28.6794 47.1097 27.9095 46.9172C26.9952 46.8209 26.1291 47.0134 25.3591 47.5909ZM37.7742 48.0721C38.0148 47.9758 38.2073 47.9277 38.2554 47.9277C38.4479 47.9277 38.5441 47.9758 38.5922 48.1683C38.6403 48.2645 38.6403 48.3608 38.6885 48.5533C38.6885 48.7457 38.7366 48.8901 38.7847 48.9863C38.9772 49.5638 39.3621 49.7563 39.8915 49.5638C40.1321 49.4676 40.3245 49.3232 40.4208 49.1307C40.517 48.9382 40.5651 48.6976 40.4689 48.5051C40.4208 48.4089 40.3727 48.2164 40.2764 48.0239C40.1802 47.8315 40.0839 47.639 40.0839 47.5427C40.0358 47.4465 39.9877 47.254 39.9396 47.0134C39.8915 46.7728 39.8433 46.5803 39.7952 46.4841C39.699 46.0991 39.4103 46.0029 38.9772 46.1472C38.6403 46.2435 38.3035 46.3878 37.9667 46.5322C37.7742 46.6285 37.3892 46.7728 36.7636 46.9653C35.9456 47.254 35.4644 47.3984 35.4163 47.4465C34.8869 47.639 34.3095 47.7833 33.6839 47.9277C33.299 48.0239 33.0103 48.0721 32.914 48.1202C32.3847 48.3127 32.1922 48.6495 32.3847 49.227C32.4328 49.4194 32.5772 49.6119 32.7215 49.7082C32.8659 49.8044 33.0584 49.8525 33.2509 49.7563C33.3471 49.7081 33.3952 49.7082 33.4915 49.66C33.6358 49.5638 33.6839 49.5638 33.7321 49.5157C33.9245 49.4675 34.117 49.66 34.2614 50.1894L35.2719 53.3172C35.4163 53.8465 35.4163 54.1352 35.2238 54.1833C35.1757 54.1833 35.0794 54.2315 34.9351 54.2315C34.7907 54.2315 34.6945 54.2796 34.6463 54.2796C34.4539 54.3277 34.3576 54.4721 34.2614 54.6164C34.2133 54.8089 34.2133 55.0014 34.2614 55.1939C34.3576 55.4345 34.4539 55.6269 34.6945 55.7232C34.8869 55.8194 35.1276 55.8675 35.32 55.7713H35.3682C35.3682 55.7713 35.4163 55.7713 35.4163 55.7232L36.2343 55.3863C36.4749 55.2901 36.7636 55.1939 37.1486 55.0495L38.1591 54.7127C39.3621 54.3277 40.2283 54.0871 40.8057 53.9427C41.1426 53.8465 41.3832 53.7984 41.5275 53.7503C41.9606 53.6059 42.1531 53.3653 42.0088 53.0285C41.9606 52.8841 41.9125 52.7397 41.8163 52.5954C41.72 52.3548 41.6238 52.2104 41.6238 52.1142C41.5757 52.0179 41.5276 51.7773 41.4794 51.4405C41.4313 51.1999 41.3832 51.0074 41.3351 50.8149C41.1426 50.2375 40.7576 49.9969 40.2283 50.1894C39.9396 50.2856 39.7952 50.43 39.6509 50.6224C39.5546 50.8149 39.5546 51.0555 39.6509 51.3442C39.699 51.4405 39.7471 51.5367 39.7952 51.6811C39.8433 51.8254 39.9396 51.9217 39.9396 52.066C39.9877 52.2585 39.9396 52.451 39.7952 52.5954C39.6509 52.7397 39.314 52.8841 38.8328 53.0285L38.1591 53.2209C37.9185 53.3172 37.726 53.3172 37.5817 53.2691C37.4373 53.2209 37.3411 53.0285 37.2448 52.7878L36.9561 51.9698C36.8599 51.7292 36.9561 51.5848 37.1486 51.4886C37.4854 51.3924 37.6779 51.4405 37.726 51.5848C37.7742 51.7292 37.7742 51.8254 37.7742 51.8736V51.9217C37.9185 52.3066 38.1591 52.451 38.5441 52.3066C38.9291 52.1623 39.0734 51.8736 38.9291 51.4405C38.8809 51.3442 38.7847 51.1036 38.6885 50.8149C38.5441 50.5262 38.4479 50.2856 38.3997 50.0931C38.3516 49.9006 38.2554 49.66 38.2073 49.3713C38.1591 49.227 38.1591 49.1307 38.111 49.0345C37.9667 48.6495 37.726 48.5051 37.3411 48.6495C36.9561 48.7457 36.8599 48.9863 36.9561 49.2751C36.9561 49.3232 37.0042 49.4194 37.0042 49.4194L37.0524 49.5638C37.1486 49.8044 37.0042 49.9969 36.6674 50.0931C36.523 50.1412 36.4268 50.1412 36.3787 50.0931C36.3306 50.045 36.2824 49.9488 36.2343 49.8044L36.0418 49.1788C35.9456 48.9382 35.9937 48.7939 36.0418 48.6976C36.09 48.6495 36.2824 48.5533 36.523 48.457L37.7742 48.0721ZM44.2223 43.5488C44.3666 43.4525 44.4629 43.3563 44.511 43.3082C44.6554 43.1638 44.7035 43.0194 44.6554 42.8269C44.6073 42.6345 44.5591 42.442 44.3667 42.2976C44.1742 42.1051 43.9817 42.0089 43.7411 42.0089C43.5486 42.0089 43.308 42.1051 43.1636 42.2976C43.0674 42.3939 42.8749 42.6345 42.6343 42.9232C42.5381 43.0194 42.49 43.1157 42.3937 43.2119C42.2975 43.3082 42.2012 43.4044 42.1531 43.5006C42.0569 43.5969 41.9125 43.7412 41.8163 43.8375C41.6719 43.9337 41.5757 44.0781 41.4313 44.1743C40.9982 44.5593 40.7576 44.7518 40.6614 44.848C40.2764 45.2811 40.2764 45.666 40.6614 46.051C40.8058 46.1954 40.9982 46.2916 41.1907 46.2916C41.3832 46.2916 41.5276 46.2435 41.6719 46.1472C41.72 46.0991 41.7682 46.0029 41.8644 45.9066C41.9125 45.8104 41.9606 45.7142 42.0088 45.666C42.1531 45.5217 42.4418 45.6179 42.7787 46.0029L45.1366 48.2645C45.5215 48.6495 45.6178 48.8901 45.4734 49.0345C45.4253 49.0826 45.3772 49.1307 45.2328 49.227C45.1366 49.2751 45.0403 49.3713 44.9922 49.4194C44.8479 49.5638 44.7997 49.7082 44.7997 49.9006C44.7997 50.0931 44.896 50.2856 45.0885 50.43C45.2809 50.6224 45.4734 50.7187 45.714 50.7187C45.9546 50.7187 46.1471 50.6224 46.2915 50.4781C46.3877 50.3818 46.4358 50.2856 46.5321 50.1894C46.6283 50.0931 46.6764 49.9969 46.7727 49.8525C46.8689 49.7563 46.9651 49.6119 47.0614 49.4676C47.1576 49.3232 47.302 49.1788 47.4464 49.0345C48.4569 48.0239 49.2268 47.254 49.7561 46.7728C49.9486 46.5803 50.093 46.436 50.2373 46.3397C50.3817 46.1954 50.4779 46.0991 50.5742 46.0029C50.911 45.6179 50.9591 45.2811 50.6223 44.9924C50.6223 44.9924 50.5742 44.9442 50.4779 44.8961C50.4298 44.848 50.3336 44.7518 50.1892 44.6555C50.1411 44.6074 50.0448 44.5593 49.9967 44.5112C49.9486 44.463 49.9005 44.4149 49.8042 44.3668C49.7561 44.3187 49.708 44.2706 49.6118 44.1743C49.5636 44.0781 49.4674 44.03 49.3712 43.8856C49.2749 43.7894 49.2268 43.6931 49.1306 43.5969C49.0824 43.5006 48.9862 43.4525 48.9381 43.4044C48.505 42.9713 48.0719 42.9713 47.5907 43.4525C47.3982 43.645 47.302 43.8856 47.302 44.1262C47.302 44.3668 47.3982 44.6074 47.5426 44.7518C47.6388 44.848 47.7351 44.9442 47.9276 45.0405C48.0238 45.0886 48.1682 45.1848 48.2163 45.2811C48.505 45.5698 48.4088 45.9066 47.9757 46.3878L47.5907 46.8209C47.5426 46.8691 47.4945 46.9172 47.3982 46.9653C47.3501 47.0134 47.302 47.0615 47.2539 47.0615C47.1095 47.2059 46.917 47.2059 46.7245 47.1097C46.6283 47.0615 46.4839 46.9653 46.2915 46.7247L43.9336 44.4149C43.6448 44.1262 43.5486 43.8856 43.7411 43.6931C44.0298 43.7412 44.126 43.645 44.2223 43.5488ZM45.4253 39.9879C45.714 40.6134 46.1471 40.9984 46.8689 41.239C47.5426 41.4796 48.1682 41.3833 48.7456 40.9984C49.0343 40.8059 49.2749 40.5653 49.5155 40.2766L49.9486 39.6029C50.3336 39.0254 50.5742 38.6886 50.7667 38.5924C50.911 38.448 51.1516 38.448 51.3922 38.5442C51.6328 38.6405 51.7772 38.7848 51.8734 39.0254C51.9697 39.266 51.9215 39.5548 51.8253 39.8435C51.5366 40.6134 51.1516 40.9503 50.5261 40.8059C50.1892 40.7578 49.9005 40.7578 49.7561 40.8059C49.6118 40.9021 49.4674 41.0465 49.3712 41.3352C49.2749 41.5758 49.2749 41.8164 49.323 42.0089C49.3712 42.2014 49.5155 42.3457 49.708 42.3939C49.8042 42.442 49.9005 42.442 50.093 42.4901C50.2854 42.5382 50.3817 42.5863 50.4779 42.5863C50.6223 42.6345 50.7667 42.7307 51.0073 42.8269C51.1997 42.9232 51.3441 42.9713 51.4885 43.0194C51.9697 43.1638 52.3065 43.0194 52.4509 42.5382C52.5952 42.1051 52.4509 41.8164 52.0659 41.6721C52.7396 41.239 53.2208 40.6615 53.4614 40.036C53.7501 39.266 53.7501 38.4961 53.4133 37.8224C53.1245 37.1488 52.5952 36.6675 51.8253 36.4269C51.1997 36.1863 50.6223 36.2345 50.093 36.5232C49.5636 36.8119 49.0343 37.3894 48.5531 38.2555C48.2644 38.7848 48.0238 39.0736 47.8794 39.1698C47.7351 39.266 47.5907 39.3142 47.3501 39.2179C46.917 39.0736 46.7727 38.6405 47.0133 38.0149C47.2539 37.3412 47.6388 37.0525 48.1682 37.1006L48.4088 37.1488C48.7937 37.1969 49.0824 37.0044 49.2268 36.5713C49.4193 36.0901 49.2749 35.7533 48.8418 35.5608H48.7937C48.7456 35.5608 48.6494 35.5127 48.505 35.4645C48.3606 35.4164 48.2644 35.4164 48.2163 35.3683C48.12 35.3202 47.9276 35.2721 47.7351 35.1758C47.5426 35.0796 47.3501 35.0315 47.2539 34.9833C46.8689 34.839 46.5802 35.0315 46.3877 35.4645C46.2915 35.7051 46.2915 35.8495 46.3396 35.9939C46.3877 36.1382 46.5802 36.2345 46.8208 36.3307C46.1471 36.5713 45.6659 37.1006 45.3772 37.8706C45.1847 38.7367 45.1847 39.3623 45.4253 39.9879Z" fill="white"/>
<path d="M18.3334 19.1517C18.5259 19.1998 18.6703 19.2961 18.8146 19.4404C18.959 19.5367 18.959 19.681 18.8628 19.7773C18.8146 19.8254 18.7665 19.8254 18.7184 19.9217C18.6703 19.9698 18.6222 20.0179 18.574 20.066C18.3816 20.3066 18.4297 20.5953 18.7665 20.9322C18.959 21.1247 19.1515 21.2209 19.3921 21.2209C19.6327 21.2209 19.8252 21.1728 19.9695 20.9803C20.0658 20.8841 20.2101 20.6916 20.4507 20.3066C20.4989 20.2104 20.6432 20.066 20.8838 19.8254C21.0763 19.6329 21.2688 19.4404 21.365 19.3442C21.4131 19.2961 21.5575 19.1998 21.7019 19.0555C21.8462 18.9111 21.9425 18.8149 22.0387 18.7668C22.2312 18.5743 22.3274 18.3818 22.2793 18.1412C22.2793 17.9006 22.1831 17.7081 21.9425 17.5156C21.5575 17.1307 21.1725 17.1307 20.8838 17.4675L20.7876 17.5638C20.7395 17.66 20.6913 17.7562 20.6432 17.7562C20.547 17.9006 20.2583 17.8525 19.8733 17.66L14.9169 15.2059C14.5319 15.0134 14.2432 14.9653 14.0989 15.0615C13.9064 15.1577 13.5695 15.4465 13.0883 15.9277C12.6552 16.3607 12.4146 16.6976 12.3665 16.8901C12.3184 17.1788 12.4146 17.5638 12.6552 18.0931L15.0613 22.6645C15.2056 22.9051 15.2537 23.0495 15.3019 23.0976C15.35 23.2901 15.35 23.4344 15.2537 23.5788C15.2056 23.6269 15.1575 23.675 15.0613 23.7232C14.965 23.7713 14.9169 23.8675 14.8688 23.8675C14.5801 24.2044 14.6282 24.5412 15.0613 24.9262C15.2537 25.1186 15.4462 25.1668 15.6868 25.1668C15.9274 25.1668 16.1199 25.0705 16.2643 24.878C16.3124 24.8299 16.4567 24.5893 16.7455 24.2525C16.8417 24.1081 17.0342 23.9156 17.2748 23.6269C17.4673 23.3863 17.6598 23.242 17.8041 23.0976C18.141 22.857 18.3334 22.6645 18.3816 22.6164C18.5259 22.4239 18.6222 22.2314 18.574 22.0389C18.5259 21.8465 18.4297 21.6059 18.2372 21.4615C17.9004 21.1247 17.6116 21.0765 17.371 21.3171C17.3229 21.3653 17.3229 21.4134 17.2748 21.4615C17.2267 21.5096 17.1786 21.5577 17.1786 21.6059C17.0823 21.7021 16.9861 21.7021 16.8898 21.6059C16.4567 21.2209 16.4086 20.8359 16.7455 20.4991L17.8522 19.2961C18.0447 19.1517 18.141 19.1036 18.3334 19.1517ZM16.553 18.1893C16.6492 18.2856 16.6011 18.3818 16.4567 18.5262L15.9274 19.1036C15.7831 19.248 15.6868 19.2961 15.5906 19.248C15.5425 19.248 15.5425 19.1998 15.5425 19.1998L14.147 16.7938L16.4086 18.0931C16.5049 18.1412 16.553 18.1893 16.553 18.1893ZM28.6312 8.46902C28.2943 8.22842 27.8613 8.08406 27.4282 8.13218C26.9951 8.13218 26.4658 8.22842 25.9364 8.37278C25.5996 8.46902 25.3109 8.56526 25.1665 8.61338L24.3966 8.9021C24.2041 8.95022 23.9635 9.04646 23.6748 9.14271C23.2898 9.23895 22.953 9.33519 22.7124 9.38331L21.7981 9.62391H21.75H21.7019C21.4613 9.72015 21.2688 9.86451 21.1725 10.057C21.0763 10.2495 21.0282 10.4901 21.1244 10.7788C21.1725 11.0194 21.3169 11.1638 21.4613 11.3081C21.6056 11.4044 21.7981 11.4525 21.9906 11.4044C22.0387 11.4044 22.1349 11.3562 22.2793 11.26C22.3755 11.2119 22.4718 11.1638 22.568 11.1156C22.7605 11.0675 22.953 11.3081 23.1455 11.8374L24.1079 15.1577C24.2522 15.6871 24.2522 16.0239 24.0116 16.072C23.9635 16.072 23.8673 16.1201 23.7229 16.1201C23.5786 16.1201 23.4823 16.1201 23.4342 16.1683C23.2417 16.2164 23.0973 16.3608 23.0492 16.5532C22.953 16.7457 22.953 16.9382 23.0492 17.1788C23.1455 17.4194 23.2898 17.6119 23.4823 17.7562C23.6748 17.8525 23.9154 17.9006 24.156 17.8044L24.2522 17.7562C24.3966 17.7081 24.6853 17.6119 25.0222 17.4675C25.359 17.3232 25.6477 17.2269 25.8402 17.1788C26.0808 17.0826 26.3695 17.0344 26.562 16.9863L27.4282 16.7938C27.765 16.6976 28.1019 16.6495 28.4387 16.5532C29.4011 16.2645 30.1229 15.8314 30.556 15.254C30.9891 14.6765 31.0853 14.0029 30.8447 13.2329C30.7485 12.8961 30.556 12.6074 30.3154 12.3186C29.9785 11.9818 29.4973 11.7893 28.7755 11.6931L28.4387 11.645C29.353 11.1156 29.6898 10.442 29.4011 9.52767C29.2567 9.04647 29.0161 8.70962 28.6312 8.46902ZM25.0703 10.875C24.974 10.6344 25.0222 10.3938 25.1665 10.2976C25.2628 10.2014 25.4552 10.1532 25.744 10.057C26.562 9.81639 27.0432 9.96075 27.2357 10.4901C27.3319 10.7307 27.2357 10.9713 27.0432 11.2119C26.8507 11.4525 26.562 11.5968 26.1289 11.7412L25.744 11.8374C25.5996 11.8856 25.5034 11.8856 25.4552 11.8856C25.359 11.8856 25.3109 11.7893 25.2628 11.5968L25.0703 10.875ZM28.3906 14.4841C28.2462 14.7247 27.9575 14.9171 27.6207 15.0134C27.1395 15.1577 26.8026 15.2059 26.6101 15.1096C26.4176 15.0615 26.2733 14.869 26.177 14.5803L25.9364 13.7141C25.8883 13.5698 25.8883 13.4735 25.9364 13.3773C25.9846 13.3292 26.0808 13.2329 26.2733 13.1848L26.6101 13.0886C27.0913 12.9442 27.5244 12.9442 27.8613 13.0404C28.1981 13.1367 28.4387 13.3773 28.5349 13.7141C28.5831 14.0029 28.5349 14.2435 28.3906 14.4841ZM38.544 10.2014C38.8327 10.2495 38.977 10.2976 39.0733 10.3457C39.2658 10.442 39.3139 10.5382 39.3139 10.7307C39.3139 10.8269 39.2658 10.9713 39.1695 11.1156C39.0733 11.3081 39.0733 11.4525 39.0252 11.5487C38.9289 12.1743 39.1695 12.5592 39.747 12.6555C39.9876 12.7036 40.2282 12.6555 40.4688 12.5592C40.6613 12.4149 40.8056 12.2705 40.8537 12.0299C40.8537 11.8856 40.9019 11.7412 40.9019 11.4525C40.9019 11.2119 40.95 11.0194 40.95 10.875C40.9981 10.7307 41.0462 10.5382 41.0943 10.2976C41.1906 10.057 41.2387 9.86451 41.2387 9.72015C41.3349 9.33519 41.1425 9.09458 40.6613 8.99834C40.2763 8.9021 39.8913 8.85399 39.5545 8.80586C39.362 8.75774 38.8808 8.70962 38.2071 8.61338C37.2928 8.46902 36.8116 8.37278 36.7154 8.37278C36.1379 8.27654 35.5124 8.13218 34.8868 7.9397C34.4537 7.84346 34.2131 7.74722 34.0688 7.74722C33.4913 7.65098 33.1064 7.89158 33.0101 8.46902C32.962 8.70962 33.0101 8.9021 33.1064 9.09459C33.2026 9.28707 33.347 9.38331 33.5395 9.43143C33.6357 9.43143 33.7319 9.43143 33.8282 9.43143C33.9725 9.43143 34.0688 9.43143 34.1169 9.43143C34.3575 9.47955 34.4056 9.76827 34.3094 10.2976L33.6838 13.666C33.5876 14.2435 33.3951 14.4841 33.2026 14.4359C33.1545 14.4359 33.0583 14.3878 32.9139 14.3397C32.7695 14.2916 32.6733 14.2435 32.6252 14.2435C32.4327 14.1953 32.2402 14.2435 32.0958 14.3878C31.9515 14.5322 31.8552 14.6765 31.8071 14.9171C31.759 15.1577 31.8071 15.3983 31.9034 15.5908C32.0477 15.7833 32.2402 15.9277 32.4808 15.9758H32.5289C32.577 15.9758 32.577 15.9758 32.577 15.9758L33.5395 16.072C33.8282 16.1201 34.165 16.1683 34.55 16.2164L35.6567 16.4089C36.956 16.6976 37.9184 16.8901 38.4958 17.0344C38.8327 17.1307 39.1214 17.1788 39.2658 17.2269C39.747 17.3232 40.0357 17.1788 40.0838 16.7938C40.1319 16.6495 40.1319 16.457 40.1319 16.3126C40.1319 16.0239 40.1319 15.8795 40.1801 15.7833C40.1801 15.6871 40.2763 15.4465 40.3725 15.0615C40.4207 14.8209 40.5169 14.6284 40.5169 14.3878C40.6613 13.7141 40.4207 13.3292 39.7951 13.2329C39.5064 13.1848 39.2658 13.2329 39.0733 13.3773C38.8808 13.5217 38.7364 13.7141 38.6883 14.051C38.6883 14.1472 38.6402 14.2916 38.6402 14.4359C38.6402 14.5803 38.6402 14.7247 38.5921 14.869C38.544 15.1096 38.3996 15.254 38.2071 15.3021C37.9665 15.3502 37.6297 15.3502 37.1004 15.2059L36.3785 15.0615C36.0898 15.0134 35.9455 14.9171 35.8492 14.8209C35.753 14.6765 35.753 14.4841 35.8011 14.1953L35.9936 13.2811C36.0417 13.0404 36.1861 12.8961 36.4267 12.9442C36.7635 12.9923 36.956 13.1367 36.9079 13.3292C36.8598 13.4735 36.8116 13.5698 36.8116 13.6179V13.666C36.7154 14.0991 36.9079 14.3397 37.2928 14.3878C37.7259 14.4841 37.9665 14.2916 38.0628 13.8104C38.1109 13.666 38.1109 13.4254 38.159 13.1367C38.2071 12.7998 38.2071 12.5111 38.2552 12.3186C38.3034 12.078 38.3515 11.8374 38.4477 11.5968C38.4958 11.4525 38.544 11.3562 38.544 11.2119C38.6402 10.7788 38.4477 10.5382 38.0628 10.4901C37.6778 10.3938 37.4372 10.5382 37.3891 10.875C37.3891 10.9713 37.3891 11.0194 37.3891 11.0675L37.341 11.2119C37.2928 11.4525 37.1004 11.5487 36.7154 11.5006C36.571 11.4525 36.4748 11.4044 36.4267 11.3562C36.4267 11.26 36.4267 11.1638 36.4267 11.0194L36.571 10.3457C36.6192 10.1051 36.7154 9.96075 36.8598 9.91263C36.956 9.86451 37.1485 9.91263 37.3891 9.96075L38.544 10.2014ZM43.0673 12.9923C43.2116 13.1367 43.2598 13.2811 43.2116 13.3773C43.1154 13.5698 42.6823 13.8585 41.9124 14.2435C41.6237 14.3878 41.4312 14.5322 41.3349 14.7247C41.1906 15.0134 41.2387 15.254 41.4793 15.3983C41.6237 15.4946 41.8643 15.4465 42.2011 15.3502C43.5004 14.8209 44.4146 14.1472 44.8958 13.2329C45.1364 12.7998 45.2327 12.3668 45.1364 11.9337C45.0402 11.5006 44.8477 11.2119 44.5109 10.9713C44.2222 10.8269 43.9334 10.7788 43.5966 10.875C43.2598 10.9713 43.0191 11.1638 42.8748 11.5006C42.5379 12.0299 42.5861 12.5592 43.0673 12.9923ZM48.168 14.3878C47.4943 14.3397 46.8207 14.5803 46.2913 15.1096C45.762 15.6389 45.5214 16.2645 45.5695 16.9863C45.6176 17.3713 45.7139 17.7081 45.9064 18.045L46.3395 18.7668C46.6763 19.3923 46.8688 19.7773 46.9169 20.0179C46.965 20.2104 46.8688 20.451 46.6763 20.6435C46.4838 20.8359 46.2432 20.8841 46.0026 20.8359C45.762 20.7878 45.4733 20.6435 45.2327 20.4029C44.6552 19.7773 44.559 19.1998 44.944 18.7186C45.1846 18.4299 45.2808 18.1893 45.3289 17.9968C45.3289 17.8044 45.2327 17.6119 45.0402 17.3713C44.8477 17.1788 44.6552 17.0344 44.4146 16.9863C44.174 16.9382 43.9816 16.9863 43.8372 17.1307C43.7891 17.1788 43.6928 17.275 43.5485 17.4194C43.4041 17.5638 43.3079 17.66 43.2598 17.7081C43.1635 17.8044 43.0192 17.9487 42.7786 18.0931C42.6342 18.1893 42.4898 18.3337 42.3455 18.4299C41.9605 18.8149 41.9605 19.1517 42.2973 19.5848C42.6342 19.9217 42.971 19.9698 43.3079 19.6329C43.4041 20.4991 43.6928 21.1728 44.174 21.7502C44.7996 22.4239 45.4733 22.7608 46.2432 22.8089C47.0131 22.857 47.7349 22.6164 48.3124 22.0389C48.8417 21.5577 49.0823 20.9803 49.0823 20.3547C49.0823 19.7292 48.7936 18.9592 48.2161 18.045C47.8793 17.5156 47.6868 17.1307 47.6387 16.9863C47.5906 16.7938 47.6868 16.6495 47.8793 16.457C48.2643 16.1201 48.6492 16.2164 49.1786 16.7457C49.7079 17.275 49.8041 17.8044 49.4673 18.2856L49.3229 18.5262C49.0823 18.863 49.1304 19.1998 49.4673 19.5367C49.8522 19.9698 50.2372 19.9698 50.574 19.6329L50.6222 19.5848C50.6703 19.5367 50.7665 19.4404 50.8628 19.3442C50.959 19.248 51.0071 19.1517 51.1034 19.1036C51.1996 19.0074 51.344 18.9111 51.5364 18.7668C51.7289 18.6224 51.8733 18.5262 51.9695 18.4299C52.3064 18.1412 52.2583 17.7562 51.9214 17.3713C51.7289 17.1788 51.5846 17.0826 51.4402 17.0826C51.2958 17.0826 51.1034 17.1788 50.9109 17.3713C51.0071 16.6014 50.7665 15.9277 50.1891 15.254C49.4673 14.7247 48.8417 14.4359 48.168 14.3878Z" fill="white"/>
<path d="M32 1.78045C15.3504 1.78045 1.78045 15.3504 1.78045 32C1.78045 48.6496 15.3504 62.2196 32 62.2196C48.6496 62.2196 62.2195 48.6496 62.2195 32C62.2195 15.3504 48.6496 1.78045 32 1.78045ZM32 64C14.3398 64 0 49.6602 0 32C0 14.388 14.3398 0 32 0C49.612 0 64 14.3398 64 32C63.9519 49.6602 49.612 64 32 64Z" fill="#F5B400"/>
</svg>
